<svg width="336" height="43" viewBox="0 0 336 43" fill="none" xmlns="http://www.w3.org/2000/svg">
    <path
            d="M24.0065 41.768C19.1425 41.768 14.9185 40.872 11.3345 39.08C7.7505 37.2453 4.9985 34.7707 3.0785 31.656C1.1585 28.5413 0.1985 25.0853 0.1985 21.288C0.1985 17.2347 1.26517 13.608 3.3985 10.408C5.5745 7.208 8.56117 4.73333 12.3585 2.984C16.1558 1.192 20.4225 0.295998 25.1585 0.295998C27.2065 0.295998 29.2545 0.466665 31.3025 0.807999C33.3505 1.10666 34.9932 1.512 36.2305 2.024C36.6998 2.19467 36.9558 2.344 36.9985 2.472C37.0838 2.55733 37.1478 2.89867 37.1905 3.496L38.0225 12.392C38.0225 12.52 37.8945 12.6053 37.6385 12.648C37.4252 12.6907 37.2972 12.6267 37.2545 12.456C36.6998 11.048 35.8038 9.512 34.5665 7.848C33.3292 6.184 31.7078 4.73333 29.7025 3.496C27.6972 2.25867 25.3718 1.64 22.7265 1.64C19.9958 1.64 17.4998 2.38667 15.2385 3.88C12.9772 5.37333 11.1852 7.50667 9.8625 10.28C8.5825 13.0533 7.9425 16.2747 7.9425 19.944C7.9425 23.9547 8.68917 27.5387 10.1825 30.696C11.7185 33.8533 13.8305 36.3067 16.5185 38.056C19.2065 39.8053 22.2358 40.68 25.6065 40.68C27.3558 40.68 28.6998 40.488 29.6385 40.104C30.5772 39.72 31.2598 38.9733 31.6865 37.864C32.1132 36.7547 32.3265 35.112 32.3265 32.936C32.3265 30.7173 32.1985 29.1813 31.9425 28.328C31.6865 27.432 31.1318 26.8347 30.2785 26.536C29.4678 26.2373 28.0172 26.088 25.9265 26.088C25.6705 26.088 25.5425 25.9173 25.5425 25.576C25.5425 25.448 25.5638 25.3413 25.6065 25.256C25.6918 25.128 25.7772 25.064 25.8625 25.064C29.4892 25.2773 32.4332 25.384 34.6945 25.384C36.8705 25.384 39.1318 25.32 41.4785 25.192C41.6492 25.192 41.7345 25.3413 41.7345 25.64C41.7772 25.9387 41.6918 26.088 41.4785 26.088C40.7105 26.0453 40.1558 26.1947 39.8145 26.536C39.5158 26.8347 39.3238 27.4747 39.2385 28.456C39.1532 29.4373 39.1105 31.144 39.1105 33.576C39.1105 35.496 39.1745 36.8613 39.3025 37.672C39.4732 38.4827 39.5585 38.9947 39.5585 39.208C39.5585 39.464 39.5158 39.6347 39.4305 39.72C39.3452 39.8053 39.1532 39.8907 38.8545 39.976C33.3505 41.1707 28.4012 41.768 24.0065 41.768ZM58.403 35.816C58.403 37.1387 58.5097 38.0987 58.723 38.696C58.9363 39.2933 59.3417 39.6987 59.939 39.912C60.579 40.1253 61.5817 40.232 62.947 40.232C63.075 40.232 63.139 40.36 63.139 40.616C63.139 40.872 63.075 41 62.947 41C61.539 41 60.4297 40.9787 59.619 40.936L54.755 40.872L50.019 40.936C49.1657 40.9787 48.0137 41 46.563 41C46.4777 41 46.435 40.872 46.435 40.616C46.435 40.36 46.4777 40.232 46.563 40.232C47.9283 40.232 48.931 40.1253 49.571 39.912C50.211 39.6987 50.6377 39.2933 50.851 38.696C51.107 38.056 51.235 37.096 51.235 35.816V6.184C51.235 4.904 51.107 3.96533 50.851 3.368C50.6377 2.77066 50.211 2.36533 49.571 2.152C48.931 1.896 47.9283 1.768 46.563 1.768C46.4777 1.768 46.435 1.64 46.435 1.384C46.435 1.128 46.4777 1 46.563 1L50.019 1.064C51.9817 1.14933 53.5603 1.192 54.755 1.192C56.0777 1.192 57.7203 1.14933 59.683 1.064L62.947 1C63.075 1 63.139 1.128 63.139 1.384C63.139 1.64 63.075 1.768 62.947 1.768C61.6243 1.768 60.643 1.896 60.003 2.152C59.363 2.408 58.9363 2.856 58.723 3.496C58.5097 4.09333 58.403 5.032 58.403 6.312V35.816ZM89.174 41.768C85.206 41.768 81.6647 40.8507 78.55 39.016C75.478 37.1387 73.0887 34.6213 71.382 31.464C69.718 28.264 68.886 24.7867 68.886 21.032C68.886 16.6373 69.9953 12.8827 72.214 9.768C74.4327 6.61066 77.27 4.24266 80.726 2.664C84.2247 1.08533 87.7873 0.295998 91.414 0.295998C95.4673 0.295998 99.03 1.256 102.102 3.176C105.174 5.05333 107.521 7.54933 109.142 10.664C110.806 13.7787 111.638 17.0853 111.638 20.584C111.638 24.4667 110.614 28.0293 108.566 31.272C106.518 34.5147 103.766 37.0747 100.31 38.952C96.8967 40.8293 93.1847 41.768 89.174 41.768ZM91.286 40.168C93.6753 40.168 95.8087 39.4853 97.686 38.12C99.606 36.712 101.099 34.6853 102.166 32.04C103.233 29.352 103.766 26.152 103.766 22.44C103.766 18.5147 103.169 15.016 101.974 11.944C100.779 8.82933 99.0513 6.39733 96.79 4.648C94.5287 2.89867 91.8833 2.024 88.854 2.024C84.9713 2.024 81.9847 3.496 79.894 6.44C77.8033 9.34133 76.758 13.416 76.758 18.664C76.758 22.8027 77.3767 26.5147 78.614 29.8C79.894 33.0427 81.622 35.5813 83.798 37.416C86.0167 39.2507 88.5127 40.168 91.286 40.168ZM155.81 1C155.938 1 156.002 1.128 156.002 1.384C156.002 1.64 155.938 1.768 155.81 1.768C154.274 1.768 152.802 2.45066 151.394 3.816C149.986 5.18133 148.855 7.016 148.002 9.32L136.162 40.936C136.119 41.1067 135.885 41.192 135.458 41.192C135.031 41.192 134.797 41.1067 134.754 40.936L118.434 6.312C117.666 4.776 116.898 3.64533 116.13 2.92C115.362 2.152 114.509 1.768 113.57 1.768C113.442 1.768 113.378 1.64 113.378 1.384C113.378 1.128 113.442 1 113.57 1C114.21 1 114.658 1.02133 114.914 1.064C115.767 1.14933 116.877 1.192 118.242 1.192C121.911 1.192 125.026 1.14933 127.586 1.064C128.269 1.02133 129.122 1 130.146 1C130.274 1 130.338 1.128 130.338 1.384C130.338 1.64 130.274 1.768 130.146 1.768C128.866 1.768 127.863 2.04533 127.138 2.6C126.455 3.112 126.114 3.85867 126.114 4.84C126.114 5.56533 126.349 6.44 126.818 7.464L138.466 32.296L135.458 37.544L146.21 9.128C146.637 7.93333 146.85 6.90933 146.85 6.056C146.85 4.73333 146.445 3.688 145.634 2.92C144.866 2.152 143.735 1.768 142.242 1.768C142.114 1.768 142.05 1.64 142.05 1.384C142.05 1.128 142.114 1 142.242 1L145.378 1.064C147.17 1.14933 148.77 1.192 150.178 1.192C150.989 1.192 151.991 1.14933 153.186 1.064L155.81 1ZM161.092 24.552H179.524L179.972 26.344H160.132L161.092 24.552ZM195.076 40.232C195.289 40.232 195.396 40.36 195.396 40.616C195.396 40.872 195.289 41 195.076 41C194.222 41 192.9 40.9573 191.108 40.872C189.23 40.7867 187.886 40.744 187.076 40.744C186.009 40.744 184.708 40.7867 183.172 40.872C181.721 40.9573 180.569 41 179.716 41C179.545 41 179.46 40.872 179.46 40.616C179.46 40.36 179.545 40.232 179.716 40.232C180.825 40.232 181.614 40.1253 182.083 39.912C182.596 39.656 182.852 39.2293 182.852 38.632C182.852 37.9067 182.425 36.6907 181.572 34.984L168.58 9.32L171.716 3.816L158.98 31.912C158.425 33.1493 158.148 34.3013 158.148 35.368C158.148 36.904 158.681 38.0987 159.748 38.952C160.857 39.8053 162.329 40.232 164.164 40.232C164.377 40.232 164.484 40.36 164.484 40.616C164.484 40.872 164.377 41 164.164 41C163.396 41 162.286 40.9573 160.836 40.872C159.214 40.7867 157.806 40.744 156.612 40.744C155.46 40.744 154.073 40.7867 152.452 40.872C151.001 40.9573 149.828 41 148.931 41C148.761 41 148.675 40.872 148.675 40.616C148.675 40.36 148.761 40.232 148.931 40.232C150.126 40.232 151.129 39.9973 151.94 39.528C152.75 39.016 153.561 38.1413 154.372 36.904C155.182 35.624 156.142 33.7467 157.252 31.272L171.14 0.743999C171.225 0.615999 171.417 0.551998 171.716 0.551998C172.057 0.551998 172.249 0.615999 172.292 0.743999L188.292 32.232C189.785 35.2613 191.022 37.352 192.004 38.504C192.985 39.656 194.009 40.232 195.076 40.232ZM203.128 2.472L205.048 2.6V32.872C205.048 35.1333 205.517 36.9253 206.456 38.248C207.395 39.5707 208.696 40.232 210.36 40.232C210.445 40.232 210.488 40.36 210.488 40.616C210.488 40.872 210.445 41 210.36 41C209.165 41 208.248 40.9787 207.608 40.936L204.152 40.872L200.184 40.936C199.459 40.9787 198.413 41 197.048 41C196.92 41 196.856 40.872 196.856 40.616C196.856 40.36 196.92 40.232 197.048 40.232C198.925 40.232 200.397 39.5707 201.464 38.248C202.573 36.9253 203.128 35.1333 203.128 32.872V2.472ZM235.768 41.96C235.768 42.088 235.661 42.1733 235.448 42.216C235.277 42.2587 235.149 42.2373 235.064 42.152L203.512 6.248C202.019 4.54133 200.739 3.368 199.672 2.728C198.605 2.088 197.517 1.768 196.408 1.768C196.323 1.768 196.28 1.64 196.28 1.384C196.28 1.128 196.323 1 196.408 1L199.096 1.064C199.651 1.10667 200.461 1.128 201.528 1.128L206.392 1.064C206.989 1.02133 207.715 1 208.568 1C208.909 1 209.165 1.08533 209.336 1.256C209.507 1.42666 209.805 1.78933 210.232 2.344C210.957 3.32533 211.469 3.98667 211.768 4.328L235.256 31.4L235.768 41.96ZM235.768 41.96L233.912 40.04V9.192C233.912 6.888 233.443 5.07467 232.504 3.752C231.565 2.42933 230.264 1.768 228.6 1.768C228.515 1.768 228.472 1.64 228.472 1.384C228.472 1.128 228.515 1 228.6 1L231.352 1.064C232.717 1.14933 233.869 1.192 234.808 1.192C235.661 1.192 236.856 1.14933 238.392 1.064L241.272 1C241.357 1 241.4 1.128 241.4 1.384C241.4 1.64 241.357 1.768 241.272 1.768C239.565 1.768 238.221 2.45066 237.24 3.816C236.259 5.13867 235.768 6.93067 235.768 9.192V41.96ZM250.191 2.472L252.111 2.6V32.872C252.111 35.1333 252.58 36.9253 253.519 38.248C254.457 39.5707 255.759 40.232 257.423 40.232C257.508 40.232 257.551 40.36 257.551 40.616C257.551 40.872 257.508 41 257.423 41C256.228 41 255.311 40.9787 254.671 40.936L251.215 40.872L247.247 40.936C246.521 40.9787 245.476 41 244.111 41C243.983 41 243.919 40.872 243.919 40.616C243.919 40.36 243.983 40.232 244.111 40.232C245.988 40.232 247.46 39.5707 248.527 38.248C249.636 36.9253 250.191 35.1333 250.191 32.872V2.472ZM282.831 41.96C282.831 42.088 282.724 42.1733 282.511 42.216C282.34 42.2587 282.212 42.2373 282.127 42.152L250.575 6.248C249.081 4.54133 247.801 3.368 246.735 2.728C245.668 2.088 244.58 1.768 243.471 1.768C243.385 1.768 243.343 1.64 243.343 1.384C243.343 1.128 243.385 1 243.471 1L246.159 1.064C246.713 1.10667 247.524 1.128 248.591 1.128L253.455 1.064C254.052 1.02133 254.777 1 255.631 1C255.972 1 256.228 1.08533 256.399 1.256C256.569 1.42666 256.868 1.78933 257.295 2.344C258.02 3.32533 258.532 3.98667 258.831 4.328L282.319 31.4L282.831 41.96ZM282.831 41.96L280.975 40.04V9.192C280.975 6.888 280.505 5.07467 279.567 3.752C278.628 2.42933 277.327 1.768 275.663 1.768C275.577 1.768 275.535 1.64 275.535 1.384C275.535 1.128 275.577 1 275.663 1L278.415 1.064C279.78 1.14933 280.932 1.192 281.871 1.192C282.724 1.192 283.919 1.14933 285.455 1.064L288.335 1C288.42 1 288.463 1.128 288.463 1.384C288.463 1.64 288.42 1.768 288.335 1.768C286.628 1.768 285.284 2.45066 284.303 3.816C283.321 5.13867 282.831 6.93067 282.831 9.192V41.96ZM301.029 24.552H319.461L319.909 26.344H300.069L301.029 24.552ZM335.013 40.232C335.226 40.232 335.333 40.36 335.333 40.616C335.333 40.872 335.226 41 335.013 41C334.16 41 332.837 40.9573 331.045 40.872C329.168 40.7867 327.824 40.744 327.013 40.744C325.946 40.744 324.645 40.7867 323.109 40.872C321.658 40.9573 320.506 41 319.653 41C319.482 41 319.397 40.872 319.397 40.616C319.397 40.36 319.482 40.232 319.653 40.232C320.762 40.232 321.552 40.1253 322.021 39.912C322.533 39.656 322.789 39.2293 322.789 38.632C322.789 37.9067 322.362 36.6907 321.509 34.984L308.517 9.32L311.653 3.816L298.917 31.912C298.362 33.1493 298.085 34.3013 298.085 35.368C298.085 36.904 298.618 38.0987 299.685 38.952C300.794 39.8053 302.266 40.232 304.101 40.232C304.314 40.232 304.421 40.36 304.421 40.616C304.421 40.872 304.314 41 304.101 41C303.333 41 302.224 40.9573 300.773 40.872C299.152 40.7867 297.744 40.744 296.549 40.744C295.397 40.744 294.01 40.7867 292.389 40.872C290.938 40.9573 289.765 41 288.869 41C288.698 41 288.613 40.872 288.613 40.616C288.613 40.36 288.698 40.232 288.869 40.232C290.064 40.232 291.066 39.9973 291.877 39.528C292.688 39.016 293.498 38.1413 294.309 36.904C295.12 35.624 296.08 33.7467 297.189 31.272L311.077 0.743999C311.162 0.615999 311.354 0.551998 311.653 0.551998C311.994 0.551998 312.186 0.615999 312.229 0.743999L328.229 32.232C329.722 35.2613 330.96 37.352 331.941 38.504C332.922 39.656 333.946 40.232 335.013 40.232Z"
            fill="black"/>
</svg>
